<?xml version="1.0" encoding="UTF-8"?>
<svg width="500px" height="500px" viewBox="0 0 500 500" version="1.1" xmlns="http://www.w3.org/2000/svg" xmlns:xlink="http://www.w3.org/1999/xlink">
    <!-- Generator: Sketch 47.1 (45422) - http://www.bohemiancoding.com/sketch -->
    <title>logo-pretty</title>
    <desc>Created with Sketch.</desc>
    <defs>
        <rect id="path-1" x="0" y="0" width="500" height="500" rx="36"></rect>
        <linearGradient x1="50%" y1="9.13982781%" x2="50%" y2="93.6862245%" id="linearGradient-3">
            <stop stop-color="#6CCCF7" offset="0%"></stop>
            <stop stop-color="#41BDF5" offset="100%"></stop>
        </linearGradient>
        <path d="M44.1525942,342.222285 L44.1525942,208.983069 L9.33976285,208.983069 C4.18514687,208.983069 0.00650500181,204.804427 0.00650500181,199.649811 C0.00650500181,197.193221 0.975032865,194.835683 2.70200557,193.088571 L190.160421,3.44403506 L190.160421,3.44403506 C194.690012,-1.13838008 202.076753,-1.18120209 206.659168,3.34838943 C206.684566,3.37349466 206.709849,3.39871639 206.735015,3.4240538 L304.625637,101.979848 L304.625637,83.7567801 L304.625637,83.7567801 C304.625637,79.4612668 308.107839,75.9790653 312.403352,75.9790653 L344.935253,75.9790653 L344.935253,75.9790653 C349.230767,75.9790653 352.712968,79.4612668 352.712968,83.7567801 L352.712968,150.681311 L394.324181,193.115108 C397.933198,196.795469 397.875362,202.704678 394.195,206.313695 C392.450218,208.024655 390.103993,208.983069 387.660297,208.983069 L352.712968,208.983069 L352.712968,342.222285 C352.712968,346.517798 349.230767,350 344.935253,350 L51.9303091,350 C47.6347958,350 44.1525942,346.517798 44.1525942,342.222285 L44.1525942,342.222285 Z M251.066514,179.449257 C252.005313,177.491022 252.531029,175.297788 252.531029,172.981985 C252.531029,164.697465 245.803081,157.981534 237.503738,157.981534 C229.204394,157.981534 222.476447,164.697465 222.476447,172.981985 C222.476447,181.266506 229.204394,187.982437 237.503738,187.982437 C239.823684,187.982437 242.020842,187.45766 243.982581,186.520538 L265.554681,208.054109 L265.554681,228.912601 L238.505557,255.913414 L238.505557,236.130358 C244.342119,234.071114 248.523751,228.514751 248.523751,221.983461 C248.523751,213.69894 241.795804,206.983009 233.49646,206.983009 C225.197117,206.983009 218.469169,213.69894 218.469169,221.983461 C218.469169,228.514751 222.650802,234.071114 228.487363,236.130358 L228.487363,265.913715 L203.441878,290.914468 L203.441878,144.052182 L224.012159,123.518641 C225.973898,124.455764 228.171056,124.98054 230.491002,124.98054 C238.790346,124.98054 245.518293,118.264609 245.518293,109.980089 C245.518293,101.695568 238.790346,94.9796373 230.491002,94.9796373 C222.191658,94.9796373 215.463711,101.695568 215.463711,109.980089 C215.463711,112.295891 215.989427,114.489125 216.928226,116.447361 L198.432781,134.909772 L179.937337,116.447361 C180.876136,114.489125 181.401852,112.295891 181.401852,109.980089 C181.401852,101.695568 174.673904,94.9796373 166.374561,94.9796373 C158.075217,94.9796373 151.34727,101.695568 151.34727,109.980089 C151.34727,118.264609 158.075217,124.98054 166.374561,124.98054 C168.694506,124.98054 170.891665,124.455764 172.853404,123.518641 L193.423684,144.052182 L193.423684,248.913204 L157.358186,212.91212 L157.358186,184.128793 C163.194748,182.069548 167.37638,176.513186 167.37638,169.981895 C167.37638,161.697375 160.648433,154.981444 152.349089,154.981444 C144.049745,154.981444 137.321798,161.697375 137.321798,169.981895 C137.321798,176.513186 141.50343,182.069548 147.339992,184.128793 L147.339992,202.911819 L119.289049,174.910976 L119.289049,147.127679 C125.125611,145.068435 129.307243,139.512072 129.307243,132.980781 C129.307243,124.696261 122.579296,117.98033 114.279952,117.98033 C105.980608,117.98033 99.252661,124.696261 99.252661,132.980781 C99.252661,139.512072 103.434293,145.068435 109.270855,147.127679 L109.270855,179.053236 L140.256059,209.983099 L122.441245,209.983099 C120.378317,204.156962 114.812012,199.982798 108.269036,199.982798 C99.969692,199.982798 93.2417447,206.698729 93.2417447,214.98325 C93.2417447,223.267771 99.969692,229.983701 108.269036,229.983701 C114.812012,229.983701 120.378317,225.809538 122.441245,219.9834 L150.274253,219.9834 L193.423684,263.055765 L193.423684,337.915883 L170.381838,314.91519 L170.381838,286.131863 C176.2184,284.072619 180.400032,278.516257 180.400032,271.984966 C180.400032,263.700445 173.672085,256.984514 165.372741,256.984514 C157.073398,256.984514 150.34545,263.700445 150.34545,271.984966 C150.34545,278.516257 154.527083,284.072619 160.363644,286.131863 L160.363644,304.914889 L126.840909,271.452027 C127.779708,269.493792 128.305424,267.300558 128.305424,264.984755 C128.305424,256.700235 121.577476,249.984304 113.278133,249.984304 C104.978789,249.984304 98.2508416,256.700235 98.2508416,264.984755 C98.2508416,273.269276 104.978789,279.985207 113.278133,279.985207 C115.598078,279.985207 117.795237,279.46043 119.756976,278.523308 L153.279711,311.98617 L135.464897,311.98617 C133.401969,306.160033 127.835665,301.985869 121.292688,301.985869 C112.993344,301.985869 106.265397,308.7018 106.265397,316.986321 C106.265397,325.270841 112.993344,331.986772 121.292688,331.986772 C127.835665,331.986772 133.401969,327.812608 135.464897,321.986471 L163.297905,321.986471 L191.348848,349.987314 L205.516714,349.987314 L234.569477,320.986441 L261.400665,320.986441 C263.463594,326.812578 269.029898,330.986742 275.572875,330.986742 C283.872218,330.986742 290.600166,324.270811 290.600166,315.986291 C290.600166,307.70177 283.872218,300.985839 275.572875,300.985839 C269.029898,300.985839 263.463594,305.160003 261.400665,310.98614 L230.419805,310.98614 L203.441878,337.915883 L203.441878,305.057029 L235.571296,272.984996 L287.44797,272.984996 C289.510898,278.811133 295.077202,282.985297 301.620179,282.985297 C309.919523,282.985297 316.64747,276.269366 316.64747,267.984845 C316.64747,259.700325 309.919523,252.984394 301.620179,252.984394 C295.077202,252.984394 289.510898,257.158558 287.44797,262.984695 L245.58949,262.984695 L275.572875,233.054862 L275.572875,208.054109 L297.144974,186.520538 C299.106713,187.45766 301.303872,187.982437 303.623818,187.982437 C311.923161,187.982437 318.651109,181.266506 318.651109,172.981985 C318.651109,164.697465 311.923161,157.981534 303.623818,157.981534 C295.324474,157.981534 288.596527,164.697465 288.596527,172.981985 C288.596527,175.297788 289.122242,177.491022 290.061042,179.449257 L275.572875,193.911548 L275.572875,148.127709 C281.409436,146.068465 285.591069,140.512102 285.591069,133.980811 C285.591069,125.696291 278.863121,118.98036 270.563778,118.98036 C262.264434,118.98036 255.536487,125.696291 255.536487,133.980811 C255.536487,140.512102 259.718119,146.068465 265.554681,148.127709 L265.554681,193.911548 L251.066514,179.449257 Z M121.292688,322.986501 C117.97295,322.986501 115.281771,320.300129 115.281771,316.986321 C115.281771,313.672512 117.97295,310.98614 121.292688,310.98614 C124.612425,310.98614 127.303604,313.672512 127.303604,316.986321 C127.303604,320.300129 124.612425,322.986501 121.292688,322.986501 Z M165.372741,277.985147 C162.053004,277.985147 159.361825,275.298774 159.361825,271.984966 C159.361825,268.671158 162.053004,265.984785 165.372741,265.984785 C168.692479,265.984785 171.383658,268.671158 171.383658,271.984966 C171.383658,275.298774 168.692479,277.985147 165.372741,277.985147 Z M113.278133,270.984936 C109.958395,270.984936 107.267216,268.298563 107.267216,264.984755 C107.267216,261.670947 109.958395,258.984575 113.278133,258.984575 C116.59787,258.984575 119.289049,261.670947 119.289049,264.984755 C119.289049,268.298563 116.59787,270.984936 113.278133,270.984936 Z M108.269036,220.983431 C104.949298,220.983431 102.258119,218.297058 102.258119,214.98325 C102.258119,211.669442 104.949298,208.983069 108.269036,208.983069 C111.588773,208.983069 114.279952,211.669442 114.279952,214.98325 C114.279952,218.297058 111.588773,220.983431 108.269036,220.983431 Z M233.49646,227.983641 C230.176723,227.983641 227.485544,225.297269 227.485544,221.983461 C227.485544,218.669652 230.176723,215.98328 233.49646,215.98328 C236.816198,215.98328 239.507377,218.669652 239.507377,221.983461 C239.507377,225.297269 236.816198,227.983641 233.49646,227.983641 Z M301.620179,273.985026 C298.300442,273.985026 295.609263,271.298654 295.609263,267.984845 C295.609263,264.671037 298.300442,261.984665 301.620179,261.984665 C304.939917,261.984665 307.631095,264.671037 307.631095,267.984845 C307.631095,271.298654 304.939917,273.985026 301.620179,273.985026 Z M275.572875,321.986471 C272.253137,321.986471 269.561958,319.300099 269.561958,315.986291 C269.561958,312.672482 272.253137,309.98611 275.572875,309.98611 C278.892612,309.98611 281.583791,312.672482 281.583791,315.986291 C281.583791,319.300099 278.892612,321.986471 275.572875,321.986471 Z M303.623818,178.982166 C300.30408,178.982166 297.612901,176.295794 297.612901,172.981985 C297.612901,169.668177 300.30408,166.981805 303.623818,166.981805 C306.943555,166.981805 309.634734,169.668177 309.634734,172.981985 C309.634734,176.295794 306.943555,178.982166 303.623818,178.982166 Z M270.563778,139.980992 C267.24404,139.980992 264.552861,137.29462 264.552861,133.980811 C264.552861,130.667003 267.24404,127.980631 270.563778,127.980631 C273.883515,127.980631 276.574694,130.667003 276.574694,133.980811 C276.574694,137.29462 273.883515,139.980992 270.563778,139.980992 Z M230.491002,115.980269 C227.171264,115.980269 224.480086,113.293897 224.480086,109.980089 C224.480086,106.666281 227.171264,103.979908 230.491002,103.979908 C233.810739,103.979908 236.501918,106.666281 236.501918,109.980089 C236.501918,113.293897 233.810739,115.980269 230.491002,115.980269 Z M166.374561,115.980269 C163.054823,115.980269 160.363644,113.293897 160.363644,109.980089 C160.363644,106.666281 163.054823,103.979908 166.374561,103.979908 C169.694298,103.979908 172.385477,106.666281 172.385477,109.980089 C172.385477,113.293897 169.694298,115.980269 166.374561,115.980269 Z M114.279952,138.980962 C110.960215,138.980962 108.269036,136.29459 108.269036,132.980781 C108.269036,129.666973 110.960215,126.980601 114.279952,126.980601 C117.599689,126.980601 120.290868,129.666973 120.290868,132.980781 C120.290868,136.29459 117.599689,138.980962 114.279952,138.980962 Z M152.349089,175.982076 C149.029352,175.982076 146.338173,173.295703 146.338173,169.981895 C146.338173,166.668087 149.029352,163.981715 152.349089,163.981715 C155.668826,163.981715 158.360005,166.668087 158.360005,169.981895 C158.360005,173.295703 155.668826,175.982076 152.349089,175.982076 Z M237.503738,178.982166 C234.184,178.982166 231.492821,176.295794 231.492821,172.981985 C231.492821,169.668177 234.184,166.981805 237.503738,166.981805 C240.823475,166.981805 243.514654,169.668177 243.514654,172.981985 C243.514654,176.295794 240.823475,178.982166 237.503738,178.982166 Z" id="path-4"></path>
        <linearGradient x1="50%" y1="41.7510364%" x2="50%" y2="100%" id="linearGradient-6">
            <stop stop-color="#FFFFFF" offset="0%"></stop>
            <stop stop-color="#D9D9D9" offset="100%"></stop>
        </linearGradient>
    </defs>
    <g id="Page-1" stroke="none" stroke-width="1" fill="none" fill-rule="evenodd">
        <g id="logo-pretty">
            <g id="background/pretty">
                <g id="background-copy">
                    <mask id="mask-2" fill="white">
                        <use xlink:href="#path-1"></use>
                    </mask>
                    <g id="Rectangle"></g>
                    <g id="depth-borders" mask="url(#mask-2)">
                        <g id="fill/blue-gradient" fill="url(#linearGradient-3)">
                            <rect id="Rectangle-2" x="0" y="0" width="500" height="500"></rect>
                        </g>
                        <path d="M500,252.5 L500,46.1499336 C500,30.1025963 498.329139,24.283444 495.191611,18.4167773 C492.054084,12.5501107 487.449889,7.94591634 481.583223,4.80838867 C475.716556,1.670861 469.897404,-1.08333549e-15 453.850066,1.86451255e-15 L46.1499336,-1.86451255e-15 C30.1025963,1.08333549e-15 24.283444,1.670861 18.4167773,4.80838867 C12.5501107,7.94591634 7.94591634,12.5501107 4.80838867,18.4167773 C1.670861,24.283444 -7.22223659e-16,30.1025963 1.24300837e-15,46.1499336 L-1.52441497e-17,252.5 L1.24300837e-15,51.1499336 C-7.22223659e-16,35.1025963 1.670861,29.283444 4.80838867,23.4167773 C7.94591634,17.5501107 12.5501107,12.9459163 18.4167773,9.80838867 C24.283444,6.670861 30.1025963,5 46.1499336,5 L453.850066,5 C469.897404,5 475.716556,6.670861 481.583223,9.80838867 C487.449889,12.9459163 492.054084,17.5501107 495.191611,23.4167773 C498.329139,29.283444 500,35.1025963 500,51.1499336 L500,252.5 Z" id="Combined-Shape" fill-opacity="0.25" fill="#FFFFFF"></path>
                        <path d="M500,247.5 L500,453.850066 C500,469.897404 498.329139,475.716556 495.191611,481.583223 C492.054084,487.449889 487.449889,492.054084 481.583223,495.191611 C475.716556,498.329139 469.897404,500 453.850066,500 L46.1499336,500 C30.1025963,500 24.283444,498.329139 18.4167773,495.191611 C12.5501107,492.054084 7.94591634,487.449889 4.80838867,481.583223 C1.670861,475.716556 7.22223659e-16,469.897404 -1.24300837e-15,453.850066 L1.52441497e-17,247.5 L-1.24300837e-15,448.850066 C7.22223659e-16,464.897404 1.670861,470.716556 4.80838867,476.583223 C7.94591634,482.449889 12.5501107,487.054084 18.4167773,490.191611 C24.283444,493.329139 30.1025963,495 46.1499336,495 L453.850066,495 C469.897404,495 475.716556,493.329139 481.583223,490.191611 C487.449889,487.054084 492.054084,482.449889 495.191611,476.583223 C498.329139,470.716556 500,464.897404 500,448.850066 L500,247.5 Z" id="Combined-Shape" fill-opacity="0.149937726" fill="#000000"></path>
                    </g>
                </g>
            </g>
            <g id="house-with-large-tree" transform="translate(52.000000, 70.000000)">
                <mask id="mask-5" fill="white">
                    <use xlink:href="#path-4"></use>
                </mask>
                <g id="large-tree" fill-rule="nonzero"></g>
                <g id="fill/white-gradient" mask="url(#mask-5)" fill-rule="evenodd" fill="url(#linearGradient-6)">
                    <rect id="Rectangle-2" x="0" y="0" width="397" height="350"></rect>
                </g>
            </g>
        </g>
    </g>
</svg>